<svg width="512" height="512" xmlns="http://www.w3.org/2000/svg">

 <g>
  <title>background</title>
  <rect fill="none" id="canvas_background" height="402" width="582" y="-1" x="-1"/>
 </g>
 <g>
  <title>Layer 1</title>
  <path fill="#d13e2e" id="svg_2" d="m256.00137,100.3933c-85.80099,0 -155.60678,69.8059 -155.60678,155.6045c0,55.01779 28.7266,103.42138 71.9419,131.09909c0.13752,0.10351 0.22052,0.25149 0.3707,0.3428c0.162,0.09961 0.3392,0.14111 0.50701,0.22049c23.99629,15.14331 52.37539,23.9465 82.78718,23.9465c85.80072,0 155.60651,-69.80569 155.60651,-155.60888c-0.00001,-85.7986 -69.8058,-155.6045 -155.60652,-155.6045zm5.29792,10.731c75.74972,2.7387 136.8392,63.8286 139.57818,139.57519l-55.8927,0c-2.6611,-44.98098 -38.70459,-81.02688 -83.68548,-83.68798l0,-55.88721zm0,66.4834c39.1394,2.6277 70.462,33.95021 73.08929,73.09179l-44.81909,0c-2.2847,-14.5159 -13.75421,-25.9859 -28.2702,-28.27009l0,-44.8217zm18.1293,78.3901c0,12.91889 -10.5108,23.43241 -23.42722,23.43241c-11.09069,0 -20.35699,-7.7681 -22.77198,-18.13453l12.75788,0c2.92582,0 5.29812,-2.36987 5.29812,-5.29788c0,-2.5977 2.11589,-4.71361 4.71598,-4.71361c2.5998,0 4.71601,2.11591 4.71601,4.71361c0,2.60211 -2.11621,4.71851 -4.71601,4.71851c-2.92599,0 -5.29809,2.36938 -5.29809,5.29788c0,2.92841 2.3721,5.2981 5.29809,5.2981c8.44382,0 15.31192,-6.87088 15.31192,-15.31449c0,-8.4438 -6.8681,-15.3098 -15.31192,-15.3098c-6.5813,0 -12.20518,4.17501 -14.36789,10.01149l-8.40409,0c2.41499,-10.36529 11.68129,-18.12939 22.77198,-18.12939c12.91642,0 23.42722,10.5083 23.42722,23.4277zm-56.99841,-5.29831l-44.81879,0c2.62729,-39.14158 33.94989,-70.46409 73.09189,-73.09179l0,44.8217c-14.51799,2.28419 -25.9881,13.75351 -28.2731,28.27009zm28.2731,-139.57519l0,55.88721c-44.9809,2.6611 -81.027,38.707 -83.6881,83.68798l-55.89018,0c2.73918,-75.74659 63.82858,-136.83649 139.57828,-139.57519zm0,289.75189c-24.7056,-0.89301 -47.844,-7.98849 -67.9195,-19.78369l1.3447,-2.20499c1.5211,-2.49911 0.7321,-5.75882 -1.767,-7.2796c-2.5067,-1.5369 -5.761,-0.73492 -7.2821,1.76389l-1.2376,2.02981c-36.56889,-25.24222 -61.0066,-66.81692 -62.71678,-114.10593l55.89018,0c1.60681,27.16303 15.36971,51.04541 35.96382,66.33152l-4.28601,7.02881c-1.52131,2.49878 -0.73211,5.7583 1.7667,7.27948c0.86139,0.52792 1.81349,0.77621 2.7525,0.77621c1.78781,0 3.53119,-0.90549 4.52969,-2.54059l4.0949,-6.71411c11.589,6.63379 24.78871,10.6936 38.8665,11.52661l0,55.89258zm-34.4419,-77.11249c-0.2169,-1.51129 -1.0086,-2.92511 -2.4143,-3.781c-1.3059,-0.80179 -2.8064,-0.93659 -4.16899,-0.55619c-18.215,-13.33932 -30.4655,-34.2727 -32.0667,-58.13083l44.81879,0c1.14482,7.27363 4.56111,13.80121 9.5512,18.77952l-1.8003,2.9504c-1.52379,2.49421 -0.7347,5.75879 1.7617,7.27979c0.8614,0.52762 1.81351,0.77612 2.755,0.77612c1.7851,0 3.52871,-0.90011 4.5271,-2.54053l1.3687,-2.24267c4.6321,2.36548 9.8591,3.72778 15.40779,3.72778c16.95441,0 31.01081,-12.47918 33.56812,-28.73041l44.81909,0c-2.74539,40.90061 -36.80539,73.36033 -78.38721,73.36033c-14.50558,0 -28.06059,-4.01642 -39.73999,-10.89231zm45.03791,77.11249l0,-55.89258c44.98089,-2.66131 81.02438,-38.707 83.68548,-83.68793l55.8927,0c-2.73898,75.75193 -63.82846,136.84153 -139.57818,139.58051z"/>
  <path fill="#d13e2e" id="svg_3" d="m229.59119,294.17041c-2.50411,-1.5369 -5.76111,-0.72952 -7.28211,1.76419l-7.87208,12.90891c-1.52132,2.49899 -0.73212,5.7586 1.76699,7.27978c0.8612,0.52731 1.81339,0.77591 2.75229,0.77591c1.78772,0 3.53121,-0.9053 4.5298,-2.54059l7.872,-12.9086c1.5211,-2.49911 0.7321,-5.7586 -1.76689,-7.2796z"/>
  <path fill="#d13e2e" id="svg_4" d="m152.291,288.67068c-0.86412,-2.74737 -1.62721,-5.56207 -2.26352,-8.35598c-0.6519,-2.85599 -3.48709,-4.64109 -6.34579,-3.98389c-2.8507,0.647 -4.63581,3.48731 -3.98641,6.34329c0.7011,3.06809 1.53671,6.15671 2.48601,9.1731c0.71149,2.2612 2.80159,3.70968 5.05229,3.70968c0.5278,0 1.0631,-0.07739 1.591,-0.24319c2.7912,-0.87939 4.34351,-3.85449 3.46642,-6.64301z"/>
  <path fill="#d13e2e" id="svg_5" d="m198.10309,345.7952c-1.28841,-0.78791 -2.76891,-0.93781 -4.1174,-0.57819c-14.74169,-10.268 -26.79769,-24.00021 -34.94261,-40.01071c-1.322,-2.60739 -4.5143,-3.63751 -7.122,-2.32321c-2.61008,1.3298 -3.6474,4.5166 -2.32049,7.12451c8.80641,17.3176 21.7823,32.21039 37.64019,43.42309l-4.292,7.0376c-1.52109,2.499 -0.7322,5.75852 1.7669,7.27951c0.86141,0.5278 1.8134,0.7764 2.75251,0.7764c1.78759,0 3.5312,-0.9053 4.5296,-2.54059l6.8051,-11.1586c0.00819,-0.0115 0.01939,-0.02032 0.02711,-0.03232c0.00708,-0.0112 0.00688,-0.02368 0.01348,-0.03488l1.02661,-1.6831c1.52099,-2.499 0.73191,-5.75852 -1.767,-7.27951z"/>
  <path fill="#d13e2e" id="svg_6" d="m170.66618,188.6545c2.32291,-2.9441 4.8272,-5.79439 7.4449,-8.47989c2.0412,-2.09571 1.9973,-5.4534 -0.098,-7.4917c-2.09549,-2.04401 -5.4484,-2.00762 -7.49179,0.09269c-2.8716,2.9495 -5.6216,6.08451 -8.16961,9.30809c-1.8134,2.29722 -1.4228,5.62891 0.87432,7.4451c0.97278,0.76561 2.12909,1.13842 3.28029,1.13842c1.565,0 3.11459,-0.6884 4.15989,-2.01271z"/>
  <path fill="#d13e2e" id="svg_7" d="m159.907,194.4077c-2.53261,-1.4744 -5.774,-0.59979 -7.24071,1.93021c-1.4151,2.44729 -2.74751,4.95629 -3.99181,7.50709c-1.28309,2.6335 -0.1889,5.8051 2.4422,7.0883c0.7475,0.36209 1.5367,0.53251 2.3152,0.53251c1.96351,0 3.8494,-1.09131 4.7678,-2.97481c1.13571,-2.3333 2.3488,-4.61499 3.63971,-6.84481c1.46429,-2.5354 0.60009,-5.77409 -1.93239,-7.23849z"/>
  <path fill="#d13e2e" id="svg_8" d="m148.42108,217.8091c-2.7912,-0.84329 -5.75859,0.7346 -6.60708,3.5339c-0.80982,2.6697 -1.53151,5.38581 -2.15241,8.1384c-0.64671,2.85091 1.14349,5.69121 3.9968,6.3382c0.39329,0.0879 0.7865,0.1291 1.1746,0.1291c2.41869,0 4.60459,-1.666 5.16069,-4.12891c0.56932,-2.50409 1.2237,-4.97189 1.96111,-7.40348c0.84849,-2.79911 -0.7321,-5.75881 -3.53371,-6.60721z"/>
  <path fill="#d13e2e" id="svg_9" d="m256.00137,66.9958c-104.21737,0 -189.00428,84.7845 -189.00428,189.00201c0,104.21701 84.78691,189.00641 189.00428,189.00641c104.21463,0 189.0015,-84.7894 189.0015,-189.00641c0,-104.21751 -84.78687,-189.00201 -189.0015,-189.00201zm0,367.41259c-98.37336,0 -178.40808,-80.03458 -178.40808,-178.41059c0,-98.37111 80.03472,-178.40579 178.40808,-178.40579s178.40531,80.03469 178.40531,178.40579c0,98.37601 -80.03202,178.41059 -178.40531,178.41059z"/>
 </g>
</svg>