<svg width="32" height="32" xmlns="http://www.w3.org/2000/svg">

 <g>
  <title>background</title>
  <rect fill="none" id="canvas_background" height="402" width="582" y="-1" x="-1"/>
 </g>
 <g>
  <title>Layer 1</title>
  <path stroke="null" stroke-width="0" id="svg_4" fill="#d13e2e" d="m15.993233,28.785474c-7.010656,0 -12.714284,-5.654502 -12.714284,-12.604774s5.703628,-12.604774 12.714284,-12.604774s12.714284,5.654502 12.714284,12.604774s-5.703628,12.604774 -12.714284,12.604774zm0,-24.369231c-6.543618,0 -11.866665,5.277199 -11.866665,11.764456s5.323047,11.764456 11.866665,11.764456s11.866665,-5.277199 11.866665,-11.764456s-5.323047,-11.764456 -11.866665,-11.764456z"/>
  <path stroke="null" id="svg_10" fill="#d13e2e" d="m23.617228,20.555238l-4.584648,-1.590474l-0.31097,-2.487764c-0.206993,0.295566 -0.503522,0.525665 -0.889587,0.64601l0.282088,2.257665c0.022143,0.181961 0.146339,0.336002 0.319635,0.39473l4.866736,1.690601c0.866481,0.302306 1.626096,1.373854 1.626096,2.292324l0,-0.006739c0,0.265721 0.215658,0.481378 0.481378,0.481378c0.264758,0 0.480416,-0.214695 0.481378,-0.479453c-0.002888,-1.327642 -1.020522,-2.760224 -2.272106,-3.198278z"/>
  <path id="svg_15" fill="#d13e2e" d="m6.701023,24.532c-0.276,0 -0.5,-0.224 -0.5,-0.5l0,0.007c0,-1.379 1.059,-2.871 2.359,-3.326l4.762,-1.641l0.012,-0.28c0.034,-0.274 0.289,-0.465 0.559,-0.434c0.273,0.034 0.468,0.284 0.434,0.559l-0.051,0.589c-0.023,0.189 -0.153,0.348 -0.333,0.41l-5.054,1.742c-0.899,0.315 -1.688,1.428 -1.688,2.381l0,-0.007c0,0.277 -0.224,0.5 -0.5,0.5z"/>
  <path id="svg_21" fill="#d13e2e" d="m16.201023,18.039c-2.779,0 -4.192,-1.844 -4.201,-6.469c-0.002,-1.174 0.123,-2.363 1.227,-3.469c0.703,-0.705 1.703,-1.062 2.974,-1.062s2.271,0.357 2.975,1.063c1.104,1.105 1.229,2.295 1.227,3.469c-0.01,4.624 -1.423,6.468 -4.202,6.468zm0,-10c-1.009,0 -1.75,0.252 -2.267,0.769c-0.632,0.633 -0.938,1.2 -0.935,2.761c0.008,4.018 1.055,5.471 3.201,5.471s3.193,-1.453 3.201,-5.471c0.003,-1.561 -0.303,-2.128 -0.935,-2.761c-0.515,-0.517 -1.256,-0.769 -2.265,-0.769z"/>
 </g>
</svg>