<svg width="64" height="64" xmlns="http://www.w3.org/2000/svg">

 <g>
  <title>background</title>
  <rect fill="none" id="canvas_background" height="402" width="582" y="-1" x="-1"/>
 </g>
 <g>
  <title>Layer 1</title>
  <path fill="#d13e2e" id="Fill-47" d="m32.1,56c-13.2,0 -23.9,-10.7 -23.9,-23.9s10.7,-23.9 23.9,-23.9c13.2,0 23.9,10.7 23.9,23.9s-10.7,23.9 -23.9,23.9l0,0zm0,-45.2c-11.7,0 -21.3,9.6 -21.3,21.3c0,11.7 9.6,21.3 21.3,21.3c11.7,0 21.3,-9.6 21.3,-21.3c0,-11.8 -9.6,-21.3 -21.3,-21.3l0,0z" class="st0"/>
  <path fill="#d13e2e" id="Fill-48" d="m24.7,24.5c0.4,-1.1 0.9,-2 1.6,-2.7c0.7,-0.7 1.6,-1.3 2.6,-1.7c1,-0.4 2.2,-0.6 3.5,-0.6c1,0 2,0.2 2.9,0.5c0.9,0.3 1.7,0.8 2.4,1.3s1.2,1.3 1.6,2.1c0.4,0.8 0.6,1.8 0.6,2.9c0,1.4 -0.3,2.5 -0.9,3.5s-1.4,1.9 -2.3,2.8c-0.8,0.8 -1.4,1.4 -1.8,1.8c-0.5,0.4 -0.8,0.9 -1,1.3s-0.4,0.9 -0.4,1.5c-0.1,0.6 -0.1,1 -0.1,2.1l-2.3,0c0,-1.1 0,-1.6 0.2,-2.3c0.1,-0.8 0.4,-1.4 0.7,-2.1c0.3,-0.6 0.8,-1.2 1.3,-1.8c0.6,-0.6 1.2,-1.2 2,-1.9c0.7,-0.6 1.3,-1.3 1.7,-2.1c0.5,-0.8 0.7,-1.7 0.7,-2.6c0,-0.7 -0.1,-1.4 -0.4,-2c-0.3,-0.6 -0.7,-1.1 -1.1,-1.6s-1,-0.8 -1.7,-1c-0.6,-0.2 -1.3,-0.4 -2,-0.4c-1,0 -1.9,0.2 -2.6,0.5c-0.8,0.3 -1.4,0.8 -1.9,1.4c-0.5,0.6 -0.9,1.3 -1.1,2.1c-0.2,0.8 -0.4,1.5 -0.3,2.4l-2.3,0c-0.1,-1.4 0,-2.3 0.4,-3.4l0,0zm6,17.5l2.8,0l0,2.8l-2.8,0l0,-2.8z" class="st0"/>
 </g>
</svg>